<svg xmlns="http://www.w3.org/2000/svg" 
    viewBox="0 0 150 150">
    <path stroke="#fff" 
        fill="#333" 
        stroke-width="3"
        d="M 75 135 
            h -40
            l 4 -13
            a 12 12 0 0 1 3 -20
            l -1 -4
            c 22 -16 23 -26 25 -34
            h -10 
            l 6 -8
            a 32 32 0 0 0 -8 -21
            l -3 -25
            l 15 16
            l 6 -10
            a 4 4 0 0 1 3 -7
            M 75 135 
            h 40
            l -4 -13
            a -12 12 0 0 0 -3 -20
            l 1 -4
            c -22 -16 -23 -26 -25 -34
            h 10 
            l -6 -8
            a -32 32 0 0 1 8 -21
            l 3 -25
            l -15 16
            l -6 -10
            a -4 4 0 0 0 -3 -7
            "/>
</svg>