<svg xmlns="http://www.w3.org/2000/svg" 
    viewBox="0 0 150 150">
    <path stroke="#fff" 
        fill="#333" 
        stroke-width="3"
        d="M 75 135 
            h -40
            l 4 -13
            a 12 12 0 0 1 3 -20
            l -1 -4
            c 22 -16 23 -26 25 -34
            h -10 
            l 6 -8
            a 32 32 0 0 0 -8 -21
            l 16 -3
            l 2 -8
            l -8 2
            l 2 -5
            l -2 -5
            l 8 2
            l -2 -8
            l 5 2
            M 75 135 
            h 40
            l -4 -13
            a -12 12 0 0 0 -3 -20
            l 1 -4
            c -22 -16 -23 -26 -25 -34
            h 10 
            l -6 -8
            a -32 32 0 0 1 8 -21
            l -16 -3
            l -2 -8
            l 8 2
            l -2 -5
            l 2 -5
            l -8 2
            l 2 -8
            l -5 2
            "/>
</svg>