<svg xmlns="http://www.w3.org/2000/svg" 
    viewBox="0 0 150 150">
    <path stroke="#fff" 
        fill="#333" 
        stroke-width="3"
        d="M 75 135 
            h -40
            l 4 -13
            a 12 12 0 0 1 3 -20
            l -1 -4
            c 22 -16 23 -26 25 -34
            h -10 
            l 6 -8
            a 21 19 0 0 1 13 -32
            M 75 135 
            h 40
            l -4 -13
            a -12 12 0 0 0 -3 -20
            l 1 -4
            c -22 -16 -23 -26 -25 -34
            h 10 
            l -6 -8
            a -21 19 0 0 0 -13 -32
            "/>
</svg>