<svg xmlns="http://www.w3.org/2000/svg" 
    viewBox="0 0 150 150">
    <path stroke="#333" 
        fill="#fff" 
        stroke-width="3"
        d="M 75 135 
            h -40
            l 4 -13
            a 12 12 0 0 1 3 -20
            l -1 -4
            c 14 -17 16 -25 17 -38
            l -10 -8
            l -3 -25
            l 12 -3
            l 3 10
            l 7 -1
            l 1 -11.5
            l 7 -1.5
            M 75 135 
            h 40
            l -4 -13
            a -12 12 0 0 0 -3 -20
            l 1 -4
            c -14 -17 -16 -25 -17 -38
            l 10 -8
            l 3 -25
            l -12 -3
            l -3 10
            l -7 -1
            l -1 -11.5
            l -7 -1.5
            "/>
</svg>