<svg xmlns="http://www.w3.org/2000/svg" 
    viewBox="0 0 150 150">
    <path stroke="#333" 
        fill="#fff" 
        stroke-width="3"
        d="M 75 135 
            h -40
            l 4 -13
            a 12 12 0 0 1 3 -20
            l -1 -4
            c 19 -12 23 -18 27 -39
            l -15 2
            c -14 6 -12 5 -17 -9
            c -2 -7 6 -13 37 -32
            l -1 -9
            c 28 8 46 11 41 67
            c -7 2 -7 2 -9 16
            a 18 18 0 0 0 5 4
            l -1 4
            a 12 12 0 0 1 3 20
            l 4 13
            z
            "/>
</svg>