<svg xmlns="http://www.w3.org/2000/svg" 
    viewBox="0 0 150 150">
    <path stroke="#333" 
        fill="#fff" 
        stroke-width="3"
        d="M 75 135 
            h -40
            l 4 -13
            a 12 12 0 0 1 3 -20
            l -1 -4
            c 22 -16 23 -26 25 -34
            h -10 
            l 6 -8
            a 16 15 0 0 1 -7 -12
            c 0 -12 10 -21 15 -28
            a 5 5 0 0 1 5 -7
            M 75 135 
            h 40
            l -4 -13
            a -12 12 0 0 0 -3 -20
            l 1 -4
            c -22 -16 -23 -26 -25 -34
            h 10 
            l -6 -8
            a -16 15 0 0 0 7 -12
            c 0 -12 -10 -21 -15 -28
            a -5 5 0 0 0 -5 -7
            "/>
</svg>